HIERARCHY
ROOT Hips
{
	OFFSET 0.000000 0.000000 0.000000
	CHANNELS 6 Xposition Yposition Zposition Zrotation Yrotation Xrotation 
	JOINT LHipJoint
	{
		OFFSET 0.000000 0.000000 0.000000
		CHANNELS 3 Zrotation Yrotation Xrotation
		JOINT LeftUpLeg
		{
			OFFSET 8.178360 -10.767780 5.035740
			CHANNELS 3 Zrotation Yrotation Xrotation
			JOINT LeftLeg
			{
				OFFSET 14.688660 -40.356780 0.000000
				CHANNELS 3 Zrotation Yrotation Xrotation
				JOINT LeftFoot
				{
					OFFSET 15.373200 -42.237540 0.000000
					CHANNELS 3 Zrotation Yrotation Xrotation
					JOINT LeftToeBase
					{
						OFFSET 0.945840 -2.598660 13.935300
						CHANNELS 3 Zrotation Yrotation Xrotation
						End Site
						{
							OFFSET 0.000000 0.000000 0.000000
						}
					}
				}
			}
		}
	}
	JOINT RHipJoint
	{
		OFFSET 0.000000 0.000000 0.000000
		CHANNELS 3 Zrotation Yrotation Xrotation
		JOINT RightUpLeg
		{
			OFFSET -7.833120 -10.767780 5.035740
			CHANNELS 3 Zrotation Yrotation Xrotation
			JOINT RightLeg
			{
				OFFSET -15.255180 -41.913300 0.000000
				CHANNELS 3 Zrotation Yrotation Xrotation
				JOINT RightFoot
				{
					OFFSET -15.409560 -42.337380 0.000000
					CHANNELS 3 Zrotation Yrotation Xrotation
					JOINT RightToeBase
					{
						OFFSET -0.988380 -2.715540 14.178900
						CHANNELS 3 Zrotation Yrotation Xrotation
						End Site
						{
							OFFSET 0.000000 0.000000 0.000000
						}
					}
				}
			}
		}
	}
	JOINT LowerBack
	{
		OFFSET 0.000000 0.000000 0.000000
		CHANNELS 3 Zrotation Yrotation Xrotation
		JOINT Spine
		{
			OFFSET 0.169620 12.213540 -1.160280
			CHANNELS 3 Zrotation Yrotation Xrotation
			JOINT Spine1
			{
				OFFSET 0.340320 12.293100 -0.256500
				CHANNELS 3 Zrotation Yrotation Xrotation
				JOINT Neck
				{
					OFFSET 0.000000 0.000000 0.000000
					CHANNELS 3 Zrotation Yrotation Xrotation
					JOINT Neck1
					{
						OFFSET -0.325020 10.477440 1.032120
						CHANNELS 3 Zrotation Yrotation Xrotation
						JOINT Head
						{
							OFFSET 0.624420 10.568160 -0.743820
							CHANNELS 3 Zrotation Yrotation Xrotation
							End Site
							{
								OFFSET 0.000000 0.000000 0.000000
							}
						}
					}
				}
				JOINT LeftShoulder
				{
					OFFSET 0.000000 0.000000 0.000000
					CHANNELS 3 Zrotation Yrotation Xrotation
					JOINT LeftArm
					{
						OFFSET 20.174460 7.205340 -1.867260
						CHANNELS 3 Zrotation Yrotation Xrotation
						JOINT LeftForeArm
						{
							OFFSET 29.898000 -0.000000 -0.000000
							CHANNELS 3 Zrotation Yrotation Xrotation
							JOINT LeftHand
							{
								OFFSET 20.901360 -0.000000 -0.000000
								CHANNELS 3 Zrotation Yrotation Xrotation
								JOINT LeftFingerBase
								{
									OFFSET 0.000000 0.000000 0.000000
									CHANNELS 3 Zrotation Yrotation Xrotation
									JOINT LeftHandIndex1
									{
										OFFSET 4.291560 -0.000000 -0.000000
										CHANNELS 3 Zrotation Yrotation Xrotation
										End Site
										{
											OFFSET 0.000000 0.000000 0.000000
										}
									}
								}
								JOINT LThumb
								{
									OFFSET 0.000000 0.000000 0.000000
									CHANNELS 3 Zrotation Yrotation Xrotation
									End Site
									{
										OFFSET 0.000000 0.000000 0.000000
									}
								}
							}
						}
					}
				}
				JOINT RightShoulder
				{
					OFFSET 0.000000 0.000000 0.000000
					CHANNELS 3 Zrotation Yrotation Xrotation
					JOINT RightArm
					{
						OFFSET -18.819600 8.244300 -2.427900
						CHANNELS 3 Zrotation Yrotation Xrotation
						JOINT RightForeArm
						{
							OFFSET -31.451400 -0.000000 -0.000000
							CHANNELS 3 Zrotation Yrotation Xrotation
							JOINT RightHand
							{
								OFFSET -20.665020 -0.000000 -0.000000
								CHANNELS 3 Zrotation Yrotation Xrotation
								JOINT RightFingerBase
								{
									OFFSET 0.000000 0.000000 0.000000
									CHANNELS 3 Zrotation Yrotation Xrotation
									JOINT RightHandIndex1
									{
										OFFSET -3.735180 -0.000000 -0.000000
										CHANNELS 3 Zrotation Yrotation Xrotation
										End Site
										{
											OFFSET 0.000000 0.000000 0.000000
										}
									}
								}
								JOINT RThumb
								{
									OFFSET 0.000000 0.000000 0.000000
									CHANNELS 3 Zrotation Yrotation Xrotation
									End Site
									{
										OFFSET 0.000000 0.000000 0.000000
									}
								}
							}
						}
					}
				}
			}
		}
	}
}
MOTION
Frames:	8
Frame Time:	0.0333333
-19.455792 105.104316 6.670578 3.293331 32.316790 4.262714 2.869555 2.455730 0.781891 -32.841167 -4.048862 -11.486029 1.759596 8.467452 26.900965 1.098952 -5.048057 -3.570702 0.518300 4.614200 12.811300 -4.691017 -3.124342 1.319697 18.368356 11.208832 -30.360825 -10.551936 -17.657925 61.154317 0.580527 -5.606066 -2.091522 -0.027200 -1.063800 2.924300 -2.035016 0.290921 4.946107 0.720313 -0.088184 -0.806481 3.228887 0.382234 -3.324270 -7.085614 -1.916788 -10.567195 1.486263 -1.490634 18.340240 2.051100 -1.421300 10.198400 -7.360200 3.241753 -2.052654 -83.547287 0.720456 20.994247 11.276087 -20.616949 -2.322270 -1.080290 -2.638158 10.540728 17.426172 20.946902 7.484200 -7.125000 0.000000 0.000000 -11.897600 54.460600 -2.795500 5.542411 -2.786503 -2.176819 82.913572 -5.022915 6.806810 -15.823660 23.700379 -4.127387 0.959826 -0.555247 6.290263 -14.605566 13.302855 -3.788600 7.125000 0.000000 0.000000 8.068500 -15.866200 5.611900 
-17.714880 104.813052 9.695568 3.760352 33.216470 5.044230 2.835581 2.494134 0.780292 -33.264645 -3.483209 -9.537937 1.692390 8.227521 26.337017 1.214080 -5.300731 -5.081177 0.263600 3.302900 9.123100 -4.643636 -3.098413 1.413693 17.391172 13.154434 -32.450984 -8.217256 -16.336331 53.271628 0.590616 -5.685470 -3.471288 -0.224200 3.047700 -8.411500 -2.781139 0.001394 4.712930 0.845141 -0.515785 -0.837805 4.062329 0.161505 -3.186157 -7.454827 -1.921903 -11.061774 1.808326 -1.423900 18.268877 2.238100 -1.384400 10.294500 -7.269302 3.173422 -2.094041 -83.274857 -0.494477 23.715900 12.208690 -22.189612 -2.836036 -0.954076 -2.600554 9.176106 16.894138 20.321298 7.029800 -7.125000 0.000000 0.000000 -12.180500 53.651800 -2.621500 5.597928 -2.731375 -2.150136 82.748510 -4.676235 6.519728 -15.277430 22.910232 -3.848616 0.906248 -0.540637 6.852817 -13.959633 12.725552 -3.460000 7.125000 0.000000 0.000000 8.545800 -16.521500 5.828600 
-15.857346 105.069264 12.788238 4.279207 34.411151 5.689492 2.778545 2.569693 0.838034 -33.312427 -3.730919 -6.060681 1.447286 7.583013 24.653709 1.439044 -6.738923 -5.236782 0.830200 5.812900 16.242400 -4.585811 -3.104610 1.393451 16.564234 14.021819 -32.618257 -5.384942 -13.854719 42.316753 0.848762 -7.186538 -2.309058 -0.215800 -2.990300 8.251800 -3.506543 -0.502477 4.491547 0.966581 -1.221938 -0.856743 4.834062 -0.202971 -2.985911 -7.662285 -2.035647 -11.308698 1.988561 -1.546472 17.867380 2.317800 -1.423400 10.198400 -7.192945 3.124122 -2.112445 -83.277218 -1.699098 25.137146 13.016245 -23.459925 -3.224945 -0.955036 -2.698148 8.079650 17.777188 21.483482 7.798500 -7.125000 0.000000 0.000000 -11.803800 55.081600 -2.952500 5.639213 -2.697016 -2.124753 82.782953 -4.482515 5.938524 -14.896503 22.335218 -3.642525 0.917135 -0.539007 6.991618 -14.029364 12.474070 -3.413000 7.125000 0.000000 0.000000 8.490600 -16.777000 5.742300 
-14.006454 105.007026 15.914754 4.350924 34.905662 6.246738 2.732562 2.658290 0.901288 -33.188773 -2.894837 -3.584915 1.188941 6.923890 22.866530 1.511621 -6.997187 -5.776421 0.848700 5.875800 16.424600 -4.539582 -3.138490 1.370070 16.823618 14.254124 -32.430729 -3.093460 -10.827067 31.435555 0.965138 -8.052092 0.807864 -0.000100 0.065300 -0.179300 -3.694611 -0.629993 4.329563 0.927673 -1.406688 -1.028979 4.955891 -0.283561 -3.262944 -7.461234 -2.114609 -11.508804 2.063744 -1.712391 17.822884 2.291800 -1.470500 10.257400 -7.109438 3.082761 -2.173774 -82.459549 -2.281822 26.671031 13.815741 -24.731492 -3.689486 -0.838980 -2.689779 7.606583 17.025491 21.592805 7.444500 -7.125000 0.000000 0.000000 -12.704500 54.998700 -3.157200 5.634305 -2.692283 -2.133893 83.546939 -5.150286 4.528247 -14.709257 22.051904 -3.540186 0.917442 -0.581822 8.132408 -14.248111 12.581961 -3.502700 7.125000 0.000000 0.000000 8.329400 -16.627300 5.658400 
-12.212970 104.523606 19.221336 4.420307 35.245285 6.435176 2.687713 2.769956 0.942979 -33.032917 0.267835 -1.601080 0.885904 6.077002 20.586650 1.517127 -7.182342 -5.496707 0.217800 3.004100 8.290200 -4.528074 -3.171760 1.319992 16.866046 15.370795 -30.857879 -1.426937 -7.399362 20.817406 1.041805 -8.318342 0.828903 -0.001100 0.216900 -0.596100 -4.193459 -0.793555 4.274223 0.933437 -1.648058 -1.061507 5.329597 -0.406370 -3.290981 -7.137440 -2.058116 -11.202444 2.276225 -1.769089 17.581505 2.301700 -1.434300 10.088200 -7.013466 3.051802 -2.203959 -82.071713 -2.932348 28.063254 14.737894 -26.096299 -4.149761 -0.803163 -2.869338 6.442413 17.827284 24.077236 8.584100 -7.125000 0.000000 0.000000 -13.239400 57.800500 -4.196900 5.623335 -2.685821 -2.123613 84.063209 -5.492180 4.143907 -14.703733 22.016864 -3.537525 0.892291 -0.491364 7.025864 -13.672628 11.863671 -3.155800 7.125000 0.000000 0.000000 8.763000 -17.468100 5.797000 
-10.223100 104.564700 22.586538 4.978777 36.084286 6.717561 2.682805 2.887414 1.004665 -32.979996 1.437064 2.529882 0.489195 4.876770 17.408319 1.450471 -7.271433 -4.505929 0.140900 2.418900 6.664800 -4.527157 -3.203196 1.237953 16.571980 15.977909 -28.827202 -0.664189 -4.916280 13.772612 0.911887 -7.236063 -0.361960 -0.103800 2.077400 -5.719700 -4.808483 -1.093484 4.014660 0.913026 -2.057611 -0.956285 5.641277 -0.647502 -2.837151 -7.088886 -1.997995 -11.248018 2.356281 -1.710695 17.386654 2.326300 -1.386100 9.990700 -7.013005 3.034083 -2.177214 -81.896166 -3.966253 27.820456 14.814751 -26.208448 -4.185542 -0.856669 -2.853946 6.805495 18.268540 24.029599 8.804700 -7.125000 0.000000 0.000000 -12.702600 57.851500 -4.038600 5.661717 -2.705367 -2.105586 84.251732 -5.521785 3.990123 -14.378353 21.536651 -3.375267 0.896322 -0.509853 7.850001 -13.785163 11.727395 -3.149900 7.125000 0.000000 0.000000 8.677900 -17.594300 5.715000 
-8.429616 104.429340 25.905204 4.757349 36.729568 6.791815 2.724248 2.937942 1.078186 -32.262780 -0.724182 5.702855 0.534199 4.920607 17.705586 1.453848 -7.717679 -3.669443 0.707500 5.375900 14.984000 -4.553114 -3.241352 1.188743 18.326066 14.743784 -28.449578 -0.551503 -4.410331 12.453775 0.585092 -5.270458 0.710258 -0.230900 3.092700 -8.536900 -5.023768 -1.247901 3.907428 0.996652 -2.276145 -0.999203 6.000655 -0.755038 -2.799144 -7.267433 -2.140127 -11.558586 2.301594 -1.833740 17.711502 2.316600 -1.470200 10.207200 -6.984152 3.006657 -2.192943 -81.583407 -4.356188 28.141325 14.969923 -26.453690 -4.282550 -0.878187 -2.832534 6.184913 18.778335 23.635076 8.956100 -7.125000 0.000000 0.000000 -11.874100 57.555000 -3.685000 5.683858 -2.690454 -2.106471 84.225124 -5.361821 3.998612 -14.279001 21.383163 -3.332460 0.857140 -0.492102 6.785387 -13.081450 11.738284 -2.987600 7.125000 0.000000 0.000000 9.200100 -17.624800 6.061500 
-6.417384 104.145936 29.451690 4.803310 37.368238 6.680679 2.773578 2.958238 1.087127 -31.843143 0.100521 6.549784 0.767274 5.406500 19.253443 1.489607 -8.509492 -2.595836 0.000200 0.091500 0.251500 -4.590719 -3.239858 1.216921 19.337894 14.515498 -28.849488 -0.961333 -5.974877 16.983413 0.139161 -2.439746 1.059946 -0.177100 2.710600 -7.473900 -5.168343 -1.449602 3.914851 1.038665 -2.557889 -1.079547 6.166203 -0.889145 -2.923556 -7.433763 -2.111489 -11.841129 2.303215 -1.727186 18.370346 2.353500 -1.452900 10.541700 -7.010887 3.022814 -2.185603 -82.094627 -4.585265 27.149946 14.812463 -26.156912 -4.131931 -0.852598 -2.971184 6.130267 18.689419 25.532246 9.509900 -7.125000 0.000000 0.000000 -13.172400 59.548800 -4.729800 5.708054 -2.725502 -2.143670 84.409485 -6.091111 3.727303 -14.078901 21.088525 -3.224082 0.914716 -0.547805 7.973105 -13.919852 11.980040 -3.259000 7.125000 0.000000 0.000000 8.565100 -17.294000 5.696000 
